<svg width="23" height="23" viewBox="0 0 23 23" fill="none" xmlns="http://www.w3.org/2000/svg">
<path d="M23 11.5C23 14.55 21.7884 17.4751 19.6317 19.6317C17.4751 21.7884 14.55 23 11.5 23C8.45001 23 5.52494 21.7884 3.36827 19.6317C1.2116 17.4751 0 14.55 0 11.5C0 8.45001 1.2116 5.52494 3.36827 3.36827C5.52494 1.2116 8.45001 0 11.5 0C14.55 0 17.4751 1.2116 19.6317 3.36827C21.7884 5.52494 23 8.45001 23 11.5ZM11.9126 8.48987C10.7942 8.95563 8.55744 9.91875 5.20519 11.3792C4.66181 11.5949 4.37575 11.8076 4.34987 12.0146C4.30675 12.3639 4.74519 12.5019 5.34175 12.6903L5.59331 12.7693C6.17981 12.9605 6.97044 13.1833 7.38012 13.1919C7.75387 13.2006 8.16931 13.0482 8.62787 12.7319C11.7602 10.6174 13.3774 9.54931 13.478 9.52631C13.5499 9.50906 13.6505 9.48894 13.7166 9.54931C13.7842 9.60825 13.777 9.72181 13.7698 9.752C13.7267 9.93744 12.006 11.5359 11.1162 12.3639C10.8387 12.6227 10.6418 12.8053 10.6016 12.8469C10.5129 12.9375 10.4228 13.0267 10.3313 13.1143C9.78506 13.6404 9.37681 14.0343 10.3529 14.6783C10.8229 14.9888 11.1996 15.2432 11.5747 15.4991C11.983 15.778 12.3912 16.0554 12.9202 16.4033C13.0539 16.4896 13.1833 16.583 13.3084 16.6721C13.7842 17.0114 14.214 17.3161 14.7416 17.2673C15.0492 17.2385 15.3669 16.951 15.5279 16.0885C15.9088 14.0516 16.6578 9.63988 16.8302 7.82144C16.8408 7.67027 16.8345 7.51841 16.8116 7.36862C16.798 7.24776 16.7395 7.13641 16.6477 7.05669C16.5169 6.9664 16.361 6.91962 16.2021 6.923C15.7708 6.93019 15.1052 7.16163 11.9126 8.48987Z" fill="#ABB2BF"/>
</svg>
